<svg width="582" height="402" xmlns="http://www.w3.org/2000/svg">
 <!-- Created with SVG Editor - http://github.com/mzalive/SVG Editor/ -->

 <g>
  <title>background</title>
  <rect fill="none" id="canvas_background" height="404" width="584" y="-1" x="-1"/>
  <g display="none" overflow="visible" y="0" x="0" height="100%" width="100%" id="canvasGrid">
   <rect fill="url(#gridpattern)" stroke-width="0" y="1" x="1" height="400" width="580"/>
  </g>
 </g>
 <g>
  <title>Layer 1</title>
  <g stroke="null" id="svg_5">
   <path stroke="null" id="svg_4" fill="#000000" d="m491.825796,53.951754c-20.626343,-34.377239 -58.441306,-51.565858 -99.693992,-51.565858l-206.263654,0c-41.252687,0 -79.067649,17.188619 -99.693992,51.565858c-79.067649,120.320336 -96.256269,302.519701 -41.252687,340.334664c55.003582,37.814963 178.761642,-127.195783 244.078617,-127.195783c65.316754,0 185.637089,165.010746 244.078395,127.195783c55.003582,-37.814963 37.814963,-220.014328 -41.252687,-340.334664zm-271.580408,120.320336l-34.377239,0l0,34.377239l-34.377239,0l0,-34.377239l-34.377239,0l0,-34.377239l34.377239,0l0,-34.377239l34.377239,0l0,34.377239l34.377239,0l0,34.377239zm185.637311,17.188619c0,17.188619 -13.750896,30.939515 -30.939515,30.939515c-17.188619,0 -30.939515,-13.750896 -30.939515,-30.939515c0,-17.188619 13.750896,-30.939515 30.939515,-30.939515c17.188619,0 30.939515,13.750896 30.939515,30.939515zm65.316754,-68.754478c0,17.188619 -13.750896,30.939515 -30.939515,30.939515c-17.188619,0 -30.939515,-13.750896 -30.939515,-30.939515c0,-17.188619 13.750896,-30.939515 30.939515,-30.939515c17.188619,0 30.939515,13.750896 30.939515,30.939515z"/>
  </g>
 </g>
</svg>