<svg width="19" height="23" viewBox="0 0 19 23" fill="none" xmlns="http://www.w3.org/2000/svg">
<path d="M2.6875 22.375C2.6875 22.375 0.875 22.375 0.875 20.5625C0.875 18.75 2.6875 13.3125 9.9375 13.3125C17.1875 13.3125 19 18.75 19 20.5625C19 22.375 17.1875 22.375 17.1875 22.375H2.6875ZM9.9375 11.5C11.3796 11.5 12.7627 10.9271 13.7824 9.90739C14.8021 8.88766 15.375 7.50461 15.375 6.0625C15.375 4.62039 14.8021 3.23734 13.7824 2.21761C12.7627 1.19788 11.3796 0.625 9.9375 0.625C8.49539 0.625 7.11234 1.19788 6.09261 2.21761C5.07288 3.23734 4.5 4.62039 4.5 6.0625C4.5 7.50461 5.07288 8.88766 6.09261 9.90739C7.11234 10.9271 8.49539 11.5 9.9375 11.5Z" fill="black"/>
</svg>
